<svg width="1440" height="1289" viewBox="0 0 1440 1289" fill="none" xmlns="http://www.w3.org/2000/svg">
<path d="M1522 285.612L1460.5 1288.5L-14.5652 1285.6L-62.5 301.952C226.835 317.48 264.513 350.739 439.546 291.238C493.721 272.816 547.089 251.798 601.857 235.273C627.205 227.629 656.557 216.273 683.029 216.007C707.966 215.758 733.986 221.907 757.9 228.715C760.656 229.502 763.462 230.33 766.325 231.19C880.051 265.534 986.132 270.115 1079.28 252.827C1122.2 244.862 1167.13 245.199 1210.57 244.347C1302.39 242.539 1430.21 283.417 1522 285.612Z" fill="url(#paint0_linear_2001_1517)"/>
<path d="M59.6368 216.134C59.6368 216.134 26.6008 155.361 32.7671 163.56C38.9419 171.76 63.0215 214.11 63.0215 214.11C63.0215 214.11 47.9331 134.784 51.1626 143.699C52.2477 146.696 67.181 206.1 67.181 208.399C67.181 210.699 76.4133 147.945 76.4133 155.076C76.4133 162.208 73.709 208.399 73.709 208.399C73.709 208.399 89.5896 161.528 89.5896 170.063C89.5896 178.598 78.704 210.363 78.704 210.363C78.704 210.363 94.9722 190.519 92.1991 196.668C89.4347 202.818 79.4017 216.099 79.4017 216.099C70.1092 217.624 61.9706 218.511 59.6368 216.134Z" fill="#9C9C69"/>
<path d="M38.2438 201.75C44.2636 206.6 59.2313 216.324 62.2542 216.324C65.277 216.324 38.2438 201.75 38.2438 201.75Z" fill="#9C9C69"/>
<path d="M37.0042 215.565C43.2221 211.621 51.0072 207.865 56.6309 212.094C62.2632 216.323 63.3915 216.323 63.3915 216.323L50.3701 212.223L37.0042 215.565Z" fill="#9C9C69"/>
<path d="M76.7746 211.922L90.3473 205.695C90.3473 205.695 98.925 212.146 102.034 214.653C105.143 217.159 94.6792 212.835 92.5175 210.174C90.3559 207.512 81.4941 213.275 77.9115 213.275C74.3288 213.275 76.7832 211.922 76.7832 211.922H76.7746Z" fill="#9C9C69"/>
<path d="M710.771 97.4985C710.771 97.4985 676.372 34.7596 682.8 43.2215C689.229 51.6833 714.298 95.4109 714.298 95.4109C714.298 95.4109 698.589 13.5253 701.948 22.7202C703.073 25.8117 718.621 87.1324 718.621 89.5148C718.621 91.8972 728.231 27.1025 728.231 34.4648C728.231 41.8271 725.419 89.5148 725.419 89.5148C725.419 89.5148 741.955 41.1339 741.955 49.9384C741.955 58.7429 730.618 91.5385 730.618 91.5385C730.618 91.5385 747.548 71.0532 744.671 77.3956C741.794 83.738 731.349 97.4507 731.349 97.4507C721.674 99.0284 713.197 99.9367 710.771 97.4906V97.4985Z" fill="#93AB5F"/>
<path d="M1498 29.3214C1498 29.3214 1485.02 29.2787 1463.8 29.4491C1464.42 19.4288 1461.16 9.80348 1447.45 7.51523C1416.49 2.35021 1295.92 18.3254 1239.9 18.3254C1183.88 18.3254 1138.4 0 1107.36 0C1079.71 0 1110.67 31.9735 1141.25 50.3182C1048.55 72.1089 733.224 39.8876 733.224 39.8876C733.224 39.8876 1027.85 75.8568 1146.92 105.302C1156.94 107.78 1167.03 110.115 1177.13 112.333C1023.15 116.228 843.815 123.322 669.875 119.186C540.166 116.101 466.859 113.317 421 111.311V125.238C498.762 128.223 671.302 138.542 795.061 142.096C928.201 145.921 1146.26 161.049 1261.41 154.273C1347.73 169.299 1414.44 149.576 1469.61 163L1498 29.3175L1498 29.3214Z" fill="url(#paint1_linear_2001_1517)"/>
<defs>
<linearGradient id="paint0_linear_2001_1517" x1="729.75" y1="216" x2="729.75" y2="1288" gradientUnits="userSpaceOnUse">
<stop offset="0.571232" stop-color="#F7C47C"/>
<stop offset="1" stop-color="#FBAE56"/>
</linearGradient>
<linearGradient id="paint1_linear_2001_1517" x1="421.003" y1="81.5058" x2="1498" y2="81.5058" gradientUnits="userSpaceOnUse">
<stop stop-color="#F7C47C"/>
<stop offset="0.49" stop-color="#F3BE77"/>
<stop offset="1" stop-color="#EDB26D"/>
</linearGradient>
</defs>
</svg>
